<svg width="23" height="23" viewBox="0 0 23 23" fill="none" xmlns="http://www.w3.org/2000/svg">
<g clip-path="url(#clip0_5201_106)" filter="url(#filter0_i_5201_106)">
<path d="M15.1594 0H6.89064C3.08563 0 0 3.08563 0 6.89064V15.1594C0 18.9644 3.08563 22.05 6.89064 22.05H15.1594C18.9644 22.05 22.05 18.9644 22.05 15.1594V6.89064C22.05 3.08563 18.9644 0 15.1594 0ZM19.9829 15.1594C19.9829 17.8192 17.8192 19.9829 15.1594 19.9829H6.89064C4.23085 19.9829 2.06719 17.8192 2.06719 15.1594V6.89064C2.06719 4.23085 4.23085 2.06719 6.89064 2.06719H15.1594C17.8192 2.06719 19.9829 4.23085 19.9829 6.89064V15.1594Z" fill="#242323"/>
<path d="M11.0252 5.5127C7.98092 5.5127 5.5127 7.98092 5.5127 11.0252C5.5127 14.0695 7.98092 16.5377 11.0252 16.5377C14.0695 16.5377 16.5377 14.0695 16.5377 11.0252C16.5377 7.98092 14.0695 5.5127 11.0252 5.5127ZM11.0252 14.4705C9.12615 14.4705 7.57989 12.9243 7.57989 11.0252C7.57989 9.12477 9.12615 7.57989 11.0252 7.57989C12.9243 7.57989 14.4705 9.12477 14.4705 11.0252C14.4705 12.9243 12.9243 14.4705 11.0252 14.4705Z" fill="#242323"/>
<path d="M16.9513 5.83334C17.357 5.83334 17.6859 5.50447 17.6859 5.0988C17.6859 4.69312 17.357 4.36426 16.9513 4.36426C16.5457 4.36426 16.2168 4.69312 16.2168 5.0988C16.2168 5.50447 16.5457 5.83334 16.9513 5.83334Z" fill="#242323"/>
</g>
<defs>
<filter id="filter0_i_5201_106" x="0" y="0" width="22.05" height="26.0498" filterUnits="userSpaceOnUse" color-interpolation-filters="sRGB">
<feFlood flood-opacity="0" result="BackgroundImageFix"/>
<feBlend mode="normal" in="SourceGraphic" in2="BackgroundImageFix" result="shape"/>
<feColorMatrix in="SourceAlpha" type="matrix" values="0 0 0 0 0 0 0 0 0 0 0 0 0 0 0 0 0 0 127 0" result="hardAlpha"/>
<feOffset dy="4"/>
<feGaussianBlur stdDeviation="2"/>
<feComposite in2="hardAlpha" operator="arithmetic" k2="-1" k3="1"/>
<feColorMatrix type="matrix" values="0 0 0 0 0 0 0 0 0 0 0 0 0 0 0 0 0 0 0.25 0"/>
<feBlend mode="normal" in2="shape" result="effect1_innerShadow_5201_106"/>
</filter>
<clipPath id="clip0_5201_106">
<rect width="22.05" height="22.05" fill="white"/>
</clipPath>
</defs>
</svg>
